<svg data-v-0dd9719b="" version="1.0" xmlns="http://www.w3.org/2000/svg" xmlns:xlink="http://www.w3.org/1999/xlink" width="100%" height="100%" viewBox="0 0 340.000000 250.000000" preserveAspectRatio="xMidYMid meet" color-interpolation-filters="sRGB" style="margin: auto;"> <rect data-v-0dd9719b="" x="0" y="0" width="100%" height="100%" fill="#ffffff" fill-opacity="1" class="background"></rect> <rect data-v-0dd9719b="" x="0" y="0" width="100%" height="100%" fill="url(#watermark)" fill-opacity="1" class="watermarklayer"></rect> <g data-v-0dd9719b="" class="iconmbgsvg" transform="translate(82.7249984741211,67.62545776367188)"><g fill="#000000" hollow-target="textNormalTran"><g opacity="0.55" transform="translate(31.025001525878906,0)"><g><rect fill="#000000" fill-opacity="0" stroke-width="2" x="0" y="0" width="112.5" height="114.74908200734393" class="image-rect"></rect> <svg x="0" y="0" width="112.5" height="114.74908200734393" filtersec="colorsb6512490786" class="image-svg-svg primary" style="overflow: visible;"><svg xmlns="http://www.w3.org/2000/svg" viewBox="-0.0321829654276371 -0.002709474880248308 98.04498291015625 100.00540924072266"><path d="M73.19 76.52a24.21 24.21 0 0 0-48.41 0 23.79 23.79 0 0 0 .6 5.3l13.07 13.74A14.1 14.1 0 0 0 49 100a14.08 14.08 0 0 0 10.54-4.44L72.6 81.82a23.78 23.78 0 0 0 .59-5.3z" fill="#05004e"></path><path d="M24.78 76.52a24.21 24.21 0 0 1 48.41 0 23.78 23.78 0 0 1-.59 5.3l3.32-3.5 8.59-9c-3.43-16-18-28.09-35.52-28.09S16.9 53.26 13.47 69.3l8.59 9 3.32 3.5a23.79 23.79 0 0 1-.6-5.28z" fill="#d63838" opacity=".8"></path><path d="M13.47 69.3c3.43-16 18-28.09 35.52-28.09s32.09 12 35.52 28.09L94 59.35C86.88 42 69.42 29.8 49 29.8S11.09 42 4 59.35z" fill="#d63838" opacity=".5"></path><path d="M4 59.35C11.09 42 28.56 29.8 49 29.8S86.88 42 94 59.35l.36-.38a12.84 12.84 0 0 0 0-17.94L75.92 21.68 59.53 4.44A14.08 14.08 0 0 0 49 0a14.1 14.1 0 0 0-10.55 4.44L22.06 21.68 3.65 41a12.84 12.84 0 0 0 0 18z" fill="#d63838" opacity=".2"></path></svg></svg> <!----></g></g> <g transform="translate(0,31.993289947509766)"><g data-gra="path-name" fill-rule="" class="tp-name" transform="translate(0,0)"><g transform="scale(1)"><g><path d="M2.79 0.18L14.76-5.76 14.76-14.98 3.42-14.98 3.42-18.54 14.76-18.54 14.76-27.99 18.31-27.99 18.31 6.61 14.76 6.61 14.76-1.8 4.37 3.33 2.79 0.18ZM26.14-27.99L29.65-27.99 29.65-16.96Q31.68-17.82 33.41-18.77 35.14-19.71 36.43-20.5 37.71-21.29 38.45-21.82 39.2-22.36 39.2-22.36L39.2-22.36 41.35-19.53Q41.27-19.44 40.32-18.79 39.38-18.13 37.8-17.19 36.23-16.25 34.13-15.14 32.04-14.04 29.65-13.14L29.65-13.14 29.65 3.06 37.71 3.06Q37.93 3.06 38.09 2.92 38.25 2.79 38.25 2.56L38.25 2.56 38.25-1.26 41.76-1.26 41.76 2.56Q41.76 4.23 40.59 5.42 39.42 6.61 37.71 6.61L37.71 6.61 26.14 6.61 26.14-27.99ZM48.24-25.65L50.53-28.39 57.6-22.5 55.35-19.75 48.24-25.65ZM55.35-10.3L48.24-16.2 50.53-18.95 57.6-13.05 55.35-10.3ZM57.55-6.03L50.53 6.88 47.43 5.22 54.45-7.69 57.55-6.03ZM62.69-28.93L65.97-27.63Q65.79-27.18 65.63-26.75 65.47-26.32 65.25-25.88L65.25-25.88 87.07-25.88 87.07-22.32 63.5-22.32Q62.28-20.16 61.36-18.9 60.44-17.64 60.34-17.55L60.34-17.55 58.99-18.68 57.6-19.75Q57.6-19.75 58.12-20.45 58.63-21.15 59.38-22.36 60.12-23.58 61.02-25.24 61.92-26.91 62.69-28.93L62.69-28.93ZM87.21-7.6L84.51-7.6 84.51-1.75 86.76-1.75 86.76 1.8 84.51 1.8 84.51 2.65Q84.51 4.32 83.32 5.51 82.13 6.71 80.46 6.71L80.46 6.71 76.28 6.71 76.28 3.15 80.46 3.15Q80.95 3.15 80.95 2.65L80.95 2.65 80.95 1.8 60.34 1.8 61.38-7.6 59.4-7.6 59.4-11.16 61.78-11.16 62.82-20.25 80.95-20.25 80.95-21.06 84.51-21.06 84.51-11.16 87.21-11.16 87.21-7.6ZM66.02-16.7L65.38-11.16 71.55-11.16 69.8-13.54 72.63-15.66 75.96-11.16 80.95-11.16 80.95-16.7 66.02-16.7ZM80.95-1.75L80.95-7.6 64.98-7.6 64.31-1.75 71.46-1.75 69.3-4.68 72.13-6.79 75.87-1.75 80.95-1.75ZM132.62-9.36L121.86-9.36 121.86-3.01 131.4-3.01 131.4 0.49 121.86 0.49 121.86 6.34 118.31 6.34 118.31 0.49 108.77 0.49 108.77-3.01 118.31-3.01 118.31-9.36 107.59-9.36 107.59-12.87 114.03-12.87 111.11-18.5 114.25-20.11 117.67-13.59 116.33-12.87 121.68-12.87 125.78-20.2 128.84-18.5 125.73-12.87 132.62-12.87 132.62-9.36ZM109.08-21.15L109.08-24.66 118.08-24.66 116.95-27.49 120.19-28.8 121.86-24.66 131.13-24.66 131.13-21.15 109.08-21.15ZM101.88 6.43L98.33 6.43 98.33-20.29 98.19-20.29Q98.14-18.99 98.03-17.08 97.92-15.16 97.78-12.87 97.65-10.57 97.47-8.05 97.29-5.54 97.04-3.01 96.8-0.49 96.5 1.89 96.21 4.27 95.85 6.25L95.85 6.25 92.34 5.63Q92.66 3.73 92.95 1.44 93.24-0.85 93.49-3.31 93.73-5.76 93.92-8.21 94.09-10.66 94.23-12.91 94.36-15.16 94.48-17.08 94.59-18.99 94.64-20.29L94.64-20.29 92.88-20.29 92.88-23.85 98.33-23.85 98.33-28.17 101.88-28.17 101.88-23.85 107.14-23.85 107.14-20.29 101.88-20.29 101.88 6.43ZM107.78 5.8L104.27 6.12 102.19-17.64 105.75-17.95 107.78 5.8ZM174.47-28.21L174.47-17.41Q174.47-15.75 173.27-14.56 172.08-13.37 170.41-13.37L170.41-13.37 141.03-13.37 141.03-27.45 170.91-27.45 170.91-28.21 174.47-28.21ZM170.91-23.89L144.54-23.89 144.54-22.09 170.91-22.09 170.91-23.89ZM144.54-18.54L144.54-16.92 170.41-16.92Q170.91-16.92 170.91-17.41L170.91-17.41 170.91-18.54 144.54-18.54ZM156.19-6.25L143.28-6.25Q142.69-5.13 141.95-3.96 141.21-2.79 140.26-1.67L140.26-1.67 137.56-3.92Q138.82-5.4 139.68-6.97 140.53-8.55 141.05-9.86 141.57-11.16 141.79-11.99 142.02-12.82 142.02-12.82L142.02-12.82 145.49-12.06Q145.49-11.97 145.33-11.36 145.17-10.75 144.81-9.76L144.81-9.76 156.19-9.76 156.19-12.69 159.7-12.69 159.7-9.76 174.96-9.76 174.96-6.25 159.7-6.25 159.7-3.24 173.34-3.24 173.34 0.27 159.7 0.27 159.7 3.1 177.34 3.1 177.34 6.61 138.69 6.61 138.69 3.1 156.19 3.1 156.19 0.27 142.74 0.27 142.74-3.24 156.19-3.24 156.19-6.25Z" transform="translate(-2.7899999618530273, 28.93000030517578)"></path></g> <!----> <!----> <!----> <!----> <!----> <!----> <!----></g></g> <g data-gra="path-slogan" fill-rule="" class="tp-slogan" fill="#000000" transform="translate(5,41.81000518798828)"><rect x="0" height="1" y="3.9750008583068848" width="38.98500061035156"></rect> <rect height="1" y="3.9750008583068848" width="38.98500061035156" x="125.56500244140625"></rect> <g transform="translate(41.98500061035156,0)"><g transform="scale(1)"><path d="M4.13-7.64L2.06-7.64L2.06-4.97L4.13-4.97Q5.95-4.92 5.91-6.38L5.91-6.38Q5.91-7.64 4.13-7.64L4.13-7.64ZM4.59 0L0.89 0L0.89-8.58L4.69-8.58Q6.98-8.48 7.08-6.42L7.08-6.42Q7.08-5.16 5.95-4.64L5.95-4.64Q7.55-4.08 7.55-2.53L7.55-2.53Q7.41-0.09 4.59 0L4.59 0ZM4.31-3.98L2.06-3.98L2.06-0.98L4.55-0.98Q6.33-1.03 6.38-2.53L6.38-2.53Q6.38-3.98 4.31-3.98L4.31-3.98ZM10.17-1.03L15.33-1.03L15.33 0L9 0L9-8.58L15.23-8.58L15.23-7.59L10.17-7.59L10.17-4.92L14.86-4.92L14.86-3.89L10.17-3.89L10.17-1.03ZM17.02-8.58L18.19-8.58L18.19 0L17.02 0L17.02-8.58ZM21.33-5.06L25.83-5.06L25.83-8.58L27-8.58L27 0L25.83 0L25.83-3.98L21.33-3.98L21.33 0L20.16 0L20.16-8.58L21.33-8.58L21.33-5.06ZM34.45 0L33.61-2.48L30.14-2.48L29.25 0L28.08 0L31.31-8.58L32.63-8.58L35.72 0L34.45 0ZM31.88-7.31L30.52-3.52L33.19-3.52L31.92-7.31L31.88-7.31ZM36.94-8.58L38.11-8.58L38.11 0L36.94 0L36.94-8.58ZM44.25-1.03L49.55-1.03L49.55 0L42.80 0L42.80-0.94L48.05-7.59L43.17-7.59L43.17-8.58L49.55-8.58L49.55-7.59L44.25-1.03ZM50.86-8.58L52.03-8.58L52.03 0L50.86 0L50.86-8.58ZM60.75-8.58L57.84-4.41L60.89 0L59.44 0L57.09-3.52L54.75 0L53.34 0L56.44-4.41L53.53-8.58L54.98-8.58L57.14-5.30L59.34-8.58L60.75-8.58ZM62.16-8.58L63.33-8.58L63.33 0L62.16 0L62.16-8.58ZM66.70-8.58L71.02-1.64L71.02-8.58L72.14-8.58L72.14 0L70.83 0L66.47-6.94L66.42-6.94L66.42 0L65.30 0L65.30-8.58L66.70-8.58ZM80.34-3.61L77.72-3.61L77.72-4.59L81.47-4.59L81.47 0L80.72 0L80.44-1.08Q79.45 0.09 77.63 0.14L77.63 0.14Q75.89 0.14 74.95-0.75L74.95-0.75Q73.55-2.06 73.59-4.36L73.59-4.36Q73.92-8.63 77.67-8.81L77.67-8.81Q80.86-8.63 81.33-6L81.33-6L80.20-6Q79.73-7.78 77.63-7.83L77.63-7.83Q74.95-7.64 74.81-4.31L74.81-4.31Q74.81-0.75 77.67-0.75L77.67-0.75Q78.70-0.75 79.45-1.31L79.45-1.31Q80.39-2.06 80.34-3.61L80.34-3.61Z" transform="translate(-0.890625, 8.8125)"></path></g></g></g></g></g></g><defs v-gra="od"></defs></svg>